PathFileType	4	(X/Y/Z)	s08c0303.trc
DataRate	CameraRate	NumFrames	NumMarkers	Units	OrigDataRate	OrigDataStartFrame	OrigNumFrames
200	200	5	50	mm	200	1250	2000
Frame#	Time	racr			lacr			c7			jug			rlel			rdr			llel			ldr			s2			lic			ric			lasi			rasi			rpsi			lpsi			rgt			lgt			rth1			rth2			rth3			rth4			rlfc			rmfc			rsh1			rsh2			rsh3			rsh4			rlmal			rmmal			rcal			rtoe			rmt5			lth1			lth2			lth4			lth3			llfc			lmfc			llmal			lmmal			lcal			lmt5			lsh1			lsh2			lsh3			lsh4			ltoe			SBIKE			LBIKE			RBIKE			
		X1	Y1	Z1	X2	Y2	Z2	X3	Y3	Z3	X4	Y4	Z4	X5	Y5	Z5	X6	Y6	Z6	X7	Y7	Z7	X8	Y8	Z8	X9	Y9	Z9	X10	Y10	Z10	X11	Y11	Z11	X12	Y12	Z12	X13	Y13	Z13	X14	Y14	Z14	X15	Y15	Z15	X16	Y16	Z16	X17	Y17	Z17	X18	Y18	Z18	X19	Y19	Z19	X20	Y20	Z20	X21	Y21	Z21	X22	Y22	Z22	X23	Y23	Z23	X24	Y24	Z24	X25	Y25	Z25	X26	Y26	Z26	X27	Y27	Z27	X28	Y28	Z28	X29	Y29	Z29	X30	Y30	Z30	X31	Y31	Z31	X32	Y32	Z32	X33	Y33	Z33	X34	Y34	Z34	X35	Y35	Z35	X36	Y36	Z36	X37	Y37	Z37	X38	Y38	Z38	X39	Y39	Z39	X40	Y40	Z40	X41	Y41	Z41	X42	Y42	Z42	X43	Y43	Z43	X44	Y44	Z44	X45	Y45	Z45	X46	Y46	Z46	X47	Y47	Z47	X48	Y48	Z48	X49	Y49	Z49	X50	Y50	Z50	
1250	6.2500	826.144323	1383.189606	-159.573668	802.625700	1313.692100	-469.409765	797.080251	1402.167438	-314.197501	750.014483	1252.950390	-277.442936	733.833711	1161.691432	6.490234	785.581817	886.067144	-55.737790	616.869796	1091.802600	-547.057823	776.322421	908.688107	-437.171592	234.843178	1262.166684	-166.341371	352.015462	1233.684803	-353.744239	433.681072	1242.129998	-50.044360	383.289014	1191.578275	-313.157458	428.233021	1172.044820	-86.422884	283.320467	1295.065550	-122.314033	262.240289	1300.790470	-215.397589	340.004923	1130.265803	6.598664	283.439254	1142.337901	-370.123814	410.361519	969.667395	-12.805346	455.973921	895.393142	-30.124532	458.742581	808.894980	-37.178770	485.374650	906.834414	-47.965597	471.096704	693.457923	-57.213672	436.533235	697.008086	-163.108790	354.304287	629.301373	-21.877680	301.450152	560.090857	-42.976536	222.066920	525.552399	-45.809691	320.870962	542.291319	-75.424271	117.481469	459.991629	-51.445953	132.463375	433.824941	-96.321619	58.446260	510.758525	-101.659080	183.522753	237.877006	-106.765905	117.005346	304.753904	-38.545584	355.443889	1028.597038	-390.334805	423.749881	974.998327	-399.574400	453.415493	995.661168	-391.794347	455.807154	892.304419	-406.614498	512.620836	771.220023	-395.028391	522.582240	738.899515	-290.809788	321.249218	395.396035	-393.613740	355.196329	407.757331	-308.668387	247.955641	379.985048	-355.491499	442.215454	295.281103	-425.739558	454.853301	655.063866	-418.671095	436.159907	572.297411	-402.921087	378.988476	505.828012	-402.047639	460.469294	564.006818	-372.429204	529.674183	316.190086	-361.180170	-203.097284	919.214230	-229.022987	-12.786999	79.945271	-426.688882	-12.464873	80.005237	-28.289183	
1251	6.2550	824.871835	1384.022130	-157.420657	804.877869	1310.926849	-467.734797	797.399406	1401.483669	-312.500045	750.284061	1252.528948	-274.759191	732.968063	1162.108047	8.177994	785.483079	886.266628	-55.309287	618.394242	1090.639012	-548.614070	776.145747	907.971367	-436.783536	233.751320	1259.623451	-166.672769	352.959304	1229.502077	-355.117845	433.452055	1240.791082	-51.231222	383.666733	1187.139433	-313.994504	428.060309	1170.778498	-87.255549	284.081756	1292.920430	-124.986908	261.954433	1297.289144	-216.875410	340.782408	1128.666554	6.762289	283.111078	1136.957706	-370.147090	412.663779	969.405214	-12.256647	459.500970	895.996300	-29.988928	463.493133	809.492485	-37.100136	488.519626	907.955688	-48.227490	478.320867	695.268417	-58.901776	443.277689	698.306734	-164.371530	359.874311	634.358505	-24.037181	306.352268	566.034393	-43.590054	225.843550	533.208929	-46.784355	324.760978	547.652247	-76.669136	120.280877	470.593688	-51.355263	147.706328	471.556810	-140.951045	61.717246	521.584112	-101.947351	184.222429	247.660820	-106.997477	118.393896	315.128218	-38.827668	354.046498	1022.065222	-390.030388	421.411568	967.163452	-398.951046	451.437086	987.366204	-391.373486	451.977516	883.855019	-405.268955	507.083435	762.797279	-393.468104	516.348253	730.338226	-289.331278	319.959027	384.671294	-393.820397	348.918020	394.103291	-315.565047	247.215291	368.987044	-355.135017	441.006388	284.228051	-425.509480	450.674684	645.415002	-417.318294	433.191732	563.872001	-404.273281	376.855897	495.025594	-401.246608	456.952126	554.712333	-370.716489	528.494814	304.867352	-360.942309	-203.200287	919.253880	-229.175229	-12.827786	79.861782	-426.740376	-12.436786	79.850163	-28.397514	
1252	6.2600	823.540659	1384.862850	-154.981577	807.235276	1308.286680	-465.825445	797.692987	1401.048149	-310.882432	750.355573	1252.449785	-272.031340	731.944250	1162.452448	10.066327	786.149691	886.432219	-54.329945	620.257273	1089.690483	-550.128971	775.696863	907.305511	-436.988149	233.175116	1256.814670	-167.846605	353.949402	1225.036203	-356.529378	432.989180	1239.569141	-52.444119	384.127716	1182.501944	-315.090199	427.710867	1169.554205	-88.113671	283.384160	1290.665547	-126.421890	261.669152	1293.844947	-218.801494	340.549666	1127.738774	5.800072	283.086772	1131.281106	-370.307129	414.406668	969.038931	-11.540529	462.611890	896.469079	-29.749706	468.885053	810.245553	-37.262551	491.763000	909.640450	-47.875229	485.903310	697.482328	-60.548109	450.581692	700.119250	-165.864283	366.330072	639.368004	-25.228278	311.205032	572.077764	-44.759118	229.693319	540.823804	-47.762586	329.666293	552.556847	-78.164095	123.681370	480.284295	-52.428550	151.522780	482.123287	-142.571607	65.283164	532.371150	-102.270067	185.728183	257.530762	-107.205724	120.436684	325.449684	-39.063908	352.560880	1015.026021	-389.673663	419.070510	959.122992	-398.262668	449.367230	978.899266	-391.032101	448.182984	875.248270	-403.803902	501.526815	754.198617	-391.536091	509.711852	721.657514	-287.431274	318.228136	374.155237	-393.581875	348.426205	385.223474	-316.143674	245.674129	358.855025	-354.884557	439.111155	273.369312	-425.259619	446.501811	635.659752	-415.681717	429.985303	554.127711	-402.938747	374.426014	484.677990	-400.246242	453.391464	545.531926	-369.010903	526.778465	293.473943	-360.509660	-203.204051	919.234707	-229.392910	-12.842688	79.833775	-426.791631	-12.444639	79.960037	-28.330772	
1253	6.2650	822.008646	1385.836379	-152.199133	809.742708	1305.988522	-463.665696	798.032320	1400.794929	-309.124346	750.233076	1252.591875	-269.340868	730.716798	1162.601330	11.854630	785.196895	886.202016	-54.977396	622.340524	1089.190959	-551.684996	774.776103	905.052819	-440.195156	232.776170	1254.088348	-169.835031	353.208261	1219.808509	-355.442329	432.272425	1238.609451	-53.621650	384.838253	1177.354345	-316.407582	427.204880	1168.396432	-88.898038	282.619491	1288.634954	-128.329407	261.548895	1290.223380	-221.131423	340.073925	1126.484075	5.075184	283.346524	1125.346393	-370.668393	415.848415	968.532250	-10.691931	465.627947	897.437989	-29.274169	473.799627	811.203837	-37.736971	494.752959	911.176029	-47.225501	493.470164	700.094040	-62.264812	456.193961	703.361055	-168.541846	372.825210	644.557515	-26.618667	316.349150	578.114248	-45.844537	234.504939	548.463716	-48.739289	334.070300	558.454393	-78.661816	127.486685	490.271310	-53.342139	155.163762	490.917136	-142.153685	69.119265	542.989880	-102.649132	188.013028	267.423844	-107.338415	123.125430	335.799202	-39.287990	351.308165	1008.027423	-389.419843	416.794059	950.853564	-397.562480	447.473615	970.172573	-390.532376	444.385726	866.405011	-402.226696	496.033782	745.325423	-389.603457	503.159374	712.531492	-285.590847	315.946070	364.096792	-393.440343	363.190726	386.504641	-323.862891	243.596957	348.985123	-354.761142	436.726998	262.502869	-424.899410	442.232620	626.417591	-413.996873	426.535953	544.773873	-401.505927	371.567157	474.712855	-399.000228	449.656479	536.377664	-367.272788	524.326125	282.135992	-360.132140	-203.122947	919.172443	-229.401411	-12.849969	79.711583	-426.761686	-12.443441	79.934235	-28.329744	
1254	6.2700	820.509571	1386.931102	-149.090536	812.315959	1304.004157	-461.213131	798.437586	1400.703395	-307.044369	750.176860	1252.863187	-266.477070	729.396939	1162.621092	13.527063	786.074209	886.224643	-54.082649	624.619863	1089.279371	-553.160746	775.191207	906.230081	-438.055806	232.393575	1251.099577	-172.376271	354.636681	1215.250899	-356.891269	431.258281	1237.851635	-54.907457	385.555100	1172.585184	-317.797221	426.600634	1167.618285	-89.519565	281.795393	1286.741809	-130.730604	261.459333	1286.689825	-223.715589	339.820735	1126.089586	4.676864	283.840687	1119.297756	-371.168115	417.174785	968.236408	-10.072150	469.050918	898.575910	-28.790688	478.682109	812.612748	-39.092693	497.715350	913.133002	-46.814113	500.968581	703.072315	-63.759090	463.786908	706.230258	-170.163429	379.436693	649.852029	-28.148494	321.764107	584.252981	-47.032932	239.502700	556.019161	-49.513446	338.873013	564.087630	-79.925275	131.240120	500.684366	-53.495310	159.119928	500.651388	-142.818936	73.200813	553.310608	-103.106456	191.097835	277.214944	-107.477488	126.551363	346.165368	-39.442986	350.229359	1001.005128	-389.332305	414.637055	942.543405	-396.730164	445.624842	961.264658	-389.951554	440.499164	857.407274	-400.679011	490.448350	737.176763	-389.555990	496.948403	704.639339	-283.154730	313.229012	354.217294	-393.460513	360.442982	376.476304	-323.767846	240.896223	339.480985	-354.942752	433.679127	251.819085	-424.578975	437.815554	617.419111	-412.360792	422.594307	534.204527	-397.710566	368.266659	465.039183	-398.173947	445.403817	527.393911	-365.567391	521.359378	270.871918	-359.717963	-202.996305	919.066919	-229.714593	-12.832801	79.659014	-426.769483	-12.463808	79.757940	-28.472965	
